{"asset":{"version":"2.0","generator":"VECTARY"},"nodes":[{"translation":[0,1.6428906253199351,0],"scale":[0.001,0.001,0.001],"rotation":[-0.7071067811865476,0,0,0.7071067811865476],"name":"Directional Light","extensions":{"KHR_lights_punctual":{"light":0}}},{"translation":[0.13043816900000002,0.128190002,0.004756450999999991],"scale":[0.0037783530000000004,0.0037783530000000012,0.0037783530000000012],"rotation":[0,0,0,1],"name":"Simplify","children":[2,3,4,5,6,7,8,9,10,11,12,13,14,15,16,17,18]},{"translation":[0,0,0],"scale":[1,1,1],"rotation":[0,0,0,1],"name":"Cube.002","mesh":0},{"translation":[0,0,0],"scale":[1,1,1],"rotation":[0,0,0,1],"name":"Cube.008","mesh":1},{"translation":[0,0,0],"scale":[1,1,1],"rotation":[0,0,0,1],"name":"Cube.011","mesh":2},{"translation":[0,0,0],"scale":[1,1,1],"rotation":[0,0,0,1],"name":"NurbsCurve","mesh":3},{"translation":[0,0,0],"scale":[1,1,1],"rotation":[0,0,0,1],"name":"Cube.012","mesh":4},{"translation":[0,0,0],"scale":[1,1,1],"rotation":[0,0,0,1],"name":"Cube.009","mesh":5},{"translation":[0,0,0],"scale":[1,1,1],"rotation":[0,0,0,1],"name":"BézierCurve","mesh":6},{"translation":[0,0,0],"scale":[1,1,1],"rotation":[0,0,0,1],"name":"BézierCurve.001","mesh":7},{"translation":[0,0,0],"scale":[1,1,1],"rotation":[0,0,0,1],"name":"Cube.014","mesh":8},{"translation":[0,0,0],"scale":[1,1,1],"rotation":[0,0,0,1],"name":"Cube.013","mesh":9},{"translation":[0,0,0],"scale":[1,1,1],"rotation":[0,0,0,1],"name":"Cube.015","mesh":10},{"translation":[0,0,0],"scale":[1,1,1],"rotation":[0,0,0,1],"name":"Cube.016","mesh":11},{"translation":[0,0,0],"scale":[1,1,1],"rotation":[0,0,0,1],"name":"BézierCurve.002","mesh":12},{"translation":[0,0,0],"scale":[1,1,1],"rotation":[0,0,0,1],"name":"Cube.006","mesh":13},{"translation":[0,0,0],"scale":[1,1,1],"rotation":[0,0,0,1],"name":"Cube.017","mesh":14},{"translation":[0,0,0],"scale":[1,1,1],"rotation":[0,0,0,1],"name":"Cube.023","mesh":15},{"translation":[0,0,0],"scale":[1,1,1],"rotation":[0,0,0,1],"name":"Cube.024","mesh":16}],"extensions":{"KHR_lights_punctual":{"lights":[{"name":"Directional Light","type":"directional","intensity":1.08,"color":[1,1,1]}]}},"materials":[{"pbrMetallicRoughness":{"baseColorFactor":[0.7969165429079781,0.7969165429079781,0.7969165429079781,1],"metallicFactor":1,"roughnessFactor":0.5},"name":"metal","emissiveFactor":[0,0,0],"extensions":{},"alphaMode":"OPAQUE","doubleSided":true},{"pbrMetallicRoughness":{"baseColorFactor":[0.6186857274987796,0.6186857274987796,0.6186857274987796,1],"metallicFactor":1,"roughnessFactor":0.51273882},"name":"metal_3","emissiveFactor":[0,0,0],"extensions":{},"alphaMode":"OPAQUE","doubleSided":true},{"pbrMetallicRoughness":{"baseColorFactor":[0.1247409453870513,0.1247409453870513,0.1247409453870513,1],"metallicFactor":0.54777068,"roughnessFactor":0.5},"name":"metal_2","emissiveFactor":[0,0,0],"extensions":{},"alphaMode":"OPAQUE","doubleSided":true},{"pbrMetallicRoughness":{"baseColorFactor":[0.7969165429079781,0.25084023643640047,0.27583283346124515,1],"metallicFactor":0,"roughnessFactor":0.5},"name":"veines","emissiveFactor":[0,0,0],"extensions":{},"alphaMode":"OPAQUE","doubleSided":true},{"pbrMetallicRoughness":{"baseColorFactor":[0.6186857274987796,0.6186857274987796,0.6186857274987796,1],"metallicFactor":1,"roughnessFactor":0.51273882},"name":"metal_3","emissiveFactor":[0,0,0],"extensions":{},"alphaMode":"OPAQUE","doubleSided":true},{"pbrMetallicRoughness":{"baseColorFactor":[0.1247409453870513,0.1247409453870513,0.1247409453870513,1],"metallicFactor":0.54777068,"roughnessFactor":0.5},"name":"metal_2","emissiveFactor":[0,0,0],"extensions":{},"alphaMode":"OPAQUE","doubleSided":true},{"pbrMetallicRoughness":{"baseColorFactor":[0.7969165429079781,0.25084023643640047,0.27583283346124515,1],"metallicFactor":0,"roughnessFactor":0.5},"name":"veines","emissiveFactor":[0,0,0],"extensions":{},"alphaMode":"OPAQUE","doubleSided":true},{"pbrMetallicRoughness":{"baseColorFactor":[0.7969165429079781,0.25084023643640047,0.27583283346124515,1],"metallicFactor":0,"roughnessFactor":0.5},"name":"veines","emissiveFactor":[0,0,0],"extensions":{},"alphaMode":"OPAQUE","doubleSided":true},{"pbrMetallicRoughness":{"baseColorFactor":[0.9489649381781952,0.5731588750675233,0.39929329990267437,1],"metallicFactor":0,"roughnessFactor":0.56},"name":"skin","emissiveFactor":[0.06,0.06,0.06],"extensions":{},"alphaMode":"OPAQUE","doubleSided":true},{"pbrMetallicRoughness":{"baseColorFactor":[0.6186857274987796,0.6186857274987796,0.6186857274987796,1],"metallicFactor":1,"roughnessFactor":0.51273882},"name":"metal_3","emissiveFactor":[0,0,0],"extensions":{},"alphaMode":"OPAQUE","doubleSided":true},{"pbrMetallicRoughness":{"baseColorFactor":[0.1247409453870513,0.1247409453870513,0.1247409453870513,1],"metallicFactor":0.54777068,"roughnessFactor":0.5},"name":"metal_2","emissiveFactor":[0,0,0],"extensions":{},"alphaMode":"OPAQUE","doubleSided":true},{"pbrMetallicRoughness":{"baseColorFactor":[0.7969165429079781,0.5356416093153108,0.10114516420959989,1],"metallicFactor":1,"roughnessFactor":0.5},"name":"doree_metal","emissiveFactor":[0,0,0],"extensions":{},"alphaMode":"OPAQUE","doubleSided":true},{"pbrMetallicRoughness":{"baseColorFactor":[0.7969165429079781,0.25084023643640047,0.27583283346124515,1],"metallicFactor":0,"roughnessFactor":0.5},"name":"veines","emissiveFactor":[0,0,0],"extensions":{},"alphaMode":"OPAQUE","doubleSided":true},{"pbrMetallicRoughness":{"baseColorFactor":[0.7969165429079781,0.5356416093153108,0.10114516420959989,1],"metallicFactor":1,"roughnessFactor":0.5},"name":"doree_metal","emissiveFactor":[0,0,0],"extensions":{},"alphaMode":"OPAQUE","doubleSided":true},{"pbrMetallicRoughness":{"baseColorFactor":[0.1247409453870513,0.1247409453870513,0.1247409453870513,1],"metallicFactor":0.54777068,"roughnessFactor":0.5},"name":"metal_2","emissiveFactor":[0,0,0],"extensions":{},"alphaMode":"OPAQUE","doubleSided":true},{"pbrMetallicRoughness":{"baseColorFactor":[0.6186857274987796,0.6186857274987796,0.6186857274987796,1],"metallicFactor":1,"roughnessFactor":0.51273882},"name":"metal_3","emissiveFactor":[0,0,0],"extensions":{},"alphaMode":"OPAQUE","doubleSided":true},{"pbrMetallicRoughness":{"baseColorFactor":[0.7969165429079781,0.5356416093153108,0.10114516420959989,1],"metallicFactor":1,"roughnessFactor":0.5},"name":"doree_metal","emissiveFactor":[0,0,0],"extensions":{},"alphaMode":"OPAQUE","doubleSided":true}],"meshes":[{"primitives":[{"mode":4,"attributes":{"POSITION":1,"NORMAL":2,"TEXCOORD_0":3},"material":0,"indices":0}]},{"primitives":[{"mode":4,"attributes":{"POSITION":5,"NORMAL":6,"TEXCOORD_0":7},"material":1,"indices":4}]},{"primitives":[{"mode":4,"attributes":{"POSITION":9,"NORMAL":10,"TEXCOORD_0":11},"material":2,"indices":8}]},{"primitives":[{"mode":4,"attributes":{"POSITION":13,"NORMAL":14,"TEXCOORD_0":15},"material":3,"indices":12}]},{"primitives":[{"mode":4,"attributes":{"POSITION":17,"NORMAL":18,"TEXCOORD_0":19},"material":4,"indices":16}]},{"primitives":[{"mode":4,"attributes":{"POSITION":21,"NORMAL":22,"TEXCOORD_0":23},"material":5,"indices":20}]},{"primitives":[{"mode":4,"attributes":{"POSITION":25,"NORMAL":26,"TEXCOORD_0":27},"material":6,"indices":24}]},{"primitives":[{"mode":4,"attributes":{"POSITION":29,"NORMAL":30,"TEXCOORD_0":31},"material":7,"indices":28}]},{"primitives":[{"mode":4,"attributes":{"POSITION":33,"NORMAL":34,"TEXCOORD_0":35},"material":8,"indices":32}]},{"primitives":[{"mode":4,"attributes":{"POSITION":37,"NORMAL":38,"TEXCOORD_0":39},"material":9,"indices":36}]},{"primitives":[{"mode":4,"attributes":{"POSITION":41,"NORMAL":42,"TEXCOORD_0":43},"material":10,"indices":40}]},{"primitives":[{"mode":4,"attributes":{"POSITION":45,"NORMAL":46,"TEXCOORD_0":47},"material":11,"indices":44}]},{"primitives":[{"mode":4,"attributes":{"POSITION":49,"NORMAL":50,"TEXCOORD_0":51},"material":12,"indices":48}]},{"primitives":[{"mode":4,"attributes":{"POSITION":53,"NORMAL":54,"TEXCOORD_0":55},"material":13,"indices":52}]},{"primitives":[{"mode":4,"attributes":{"POSITION":57,"NORMAL":58,"TEXCOORD_0":59},"material":14,"indices":56}]},{"primitives":[{"mode":4,"attributes":{"POSITION":61,"NORMAL":62,"TEXCOORD_0":63},"material":15,"indices":60}]},{"primitives":[{"mode":4,"attributes":{"POSITION":65,"NORMAL":66,"TEXCOORD_0":67},"material":16,"indices":64}]}],"accessors":[{"bufferView":0,"byteOffset":0,"componentType":5125,"count":66030,"type":"SCALAR"},{"bufferView":1,"byteOffset":0,"componentType":5126,"count":61046,"max":[-190.6543731689453,226.279296875,233.0354766845703],"min":[-617.7620849609375,108.5513916015625,31.456823348999023],"type":"VEC3"},{"bufferView":2,"byteOffset":0,"componentType":5126,"count":61046,"type":"VEC3"},{"bufferView":3,"byteOffset":0,"componentType":5126,"count":61046,"type":"VEC2"},{"bufferView":4,"byteOffset":0,"componentType":5125,"count":7560,"type":"SCALAR"},{"bufferView":5,"byteOffset":0,"componentType":5126,"count":3006,"max":[-34.087642669677734,213.5623321533203,212.42347717285156],"min":[-859.9825439453125,69.25028991699219,35.599952697753906],"type":"VEC3"},{"bufferView":6,"byteOffset":0,"componentType":5126,"count":3006,"type":"VEC3"},{"bufferView":7,"byteOffset":0,"componentType":5126,"count":3006,"type":"VEC2"},{"bufferView":8,"byteOffset":0,"componentType":5125,"count":65538,"type":"SCALAR"},{"bufferView":9,"byteOffset":0,"componentType":5126,"count":20050,"max":[-164.40113830566406,183.88009643554688,328.5256042480469],"min":[-658.86572265625,44.83031463623047,163.55101013183594],"type":"VEC3"},{"bufferView":10,"byteOffset":0,"componentType":5126,"count":20050,"type":"VEC3"},{"bufferView":11,"byteOffset":0,"componentType":5126,"count":20050,"type":"VEC2"},{"bufferView":12,"byteOffset":0,"componentType":5125,"count":8160,"type":"SCALAR"},{"bufferView":13,"byteOffset":0,"componentType":5126,"count":3123,"max":[1373.1357421875,292.21209716796875,216.86080932617188],"min":[-455.7992248535156,-17.164722442626953,-210.53543090820312],"type":"VEC3"},{"bufferView":14,"byteOffset":0,"componentType":5126,"count":3123,"type":"VEC3"},{"bufferView":15,"byteOffset":0,"componentType":5126,"count":3123,"type":"VEC2"},{"bufferView":16,"byteOffset":0,"componentType":5125,"count":84,"type":"SCALAR"},{"bufferView":17,"byteOffset":0,"componentType":5126,"count":48,"max":[-155.5646209716797,98.68489837646484,-23.785451889038086],"min":[-682.026611328125,61.50909423828125,-155.35345458984375],"type":"VEC3"},{"bufferView":18,"byteOffset":0,"componentType":5126,"count":48,"type":"VEC3"},{"bufferView":19,"byteOffset":0,"componentType":5126,"count":48,"type":"VEC2"},{"bufferView":20,"byteOffset":0,"componentType":5125,"count":7560,"type":"SCALAR"},{"bufferView":21,"byteOffset":0,"componentType":5126,"count":3006,"max":[-31.949708938598633,205.00047302246094,-43.51127624511719],"min":[-548.4494018554688,114.75115966796875,-154.05313110351562],"type":"VEC3"},{"bufferView":22,"byteOffset":0,"componentType":5126,"count":3006,"type":"VEC3"},{"bufferView":23,"byteOffset":0,"componentType":5126,"count":3006,"type":"VEC2"},{"bufferView":24,"byteOffset":0,"componentType":5125,"count":11604,"type":"SCALAR"},{"bufferView":25,"byteOffset":0,"componentType":5126,"count":4496,"max":[-361.21826171875,375.51190185546875,503.53363037109375],"min":[-1922.775634765625,-219.5783233642578,-654.601318359375],"type":"VEC3"},{"bufferView":26,"byteOffset":0,"componentType":5126,"count":4496,"type":"VEC3"},{"bufferView":27,"byteOffset":0,"componentType":5126,"count":4496,"type":"VEC2"},{"bufferView":28,"byteOffset":0,"componentType":5125,"count":4992,"type":"SCALAR"},{"bufferView":29,"byteOffset":0,"componentType":5126,"count":1977,"max":[-207.82266235351562,346.00213623046875,346.9429931640625],"min":[-857.5309448242188,-73.27627563476562,-431.5340881347656],"type":"VEC3"},{"bufferView":30,"byteOffset":0,"componentType":5126,"count":1977,"type":"VEC3"},{"bufferView":31,"byteOffset":0,"componentType":5126,"count":1977,"type":"VEC2"},{"bufferView":32,"byteOffset":0,"componentType":5125,"count":51636,"type":"SCALAR"},{"bufferView":33,"byteOffset":0,"componentType":5126,"count":21291,"max":[1974.3525390625,361.4017333984375,524.68603515625],"min":[-1974.352294921875,-425.6951599121094,-674.3750610351562],"type":"VEC3"},{"bufferView":34,"byteOffset":0,"componentType":5126,"count":21291,"type":"VEC3"},{"bufferView":35,"byteOffset":0,"componentType":5126,"count":21291,"type":"VEC2"},{"bufferView":36,"byteOffset":0,"componentType":5125,"count":2232,"type":"SCALAR"},{"bufferView":37,"byteOffset":0,"componentType":5126,"count":869,"max":[1548.47265625,164.37721252441406,-31.115245819091797],"min":[-62.91699981689453,20.774986267089844,-156.58364868164062],"type":"VEC3"},{"bufferView":38,"byteOffset":0,"componentType":5126,"count":869,"type":"VEC3"},{"bufferView":39,"byteOffset":0,"componentType":5126,"count":869,"type":"VEC2"},{"bufferView":40,"byteOffset":0,"componentType":5125,"count":2238,"type":"SCALAR"},{"bufferView":41,"byteOffset":0,"componentType":5126,"count":870,"max":[1549.3516845703125,163.20021057128906,52.02775192260742],"min":[-62.03799819946289,19.597986221313477,-73.44065856933594],"type":"VEC3"},{"bufferView":42,"byteOffset":0,"componentType":5126,"count":870,"type":"VEC3"},{"bufferView":43,"byteOffset":0,"componentType":5126,"count":870,"type":"VEC2"},{"bufferView":44,"byteOffset":0,"componentType":5125,"count":7560,"type":"SCALAR"},{"bufferView":45,"byteOffset":0,"componentType":5126,"count":2998,"max":[1400.789306640625,304.0699462890625,165.88079833984375],"min":[240.09703063964844,128.7101287841797,-28.474611282348633],"type":"VEC3"},{"bufferView":46,"byteOffset":0,"componentType":5126,"count":2998,"type":"VEC3"},{"bufferView":47,"byteOffset":0,"componentType":5126,"count":2998,"type":"VEC2"},{"bufferView":48,"byteOffset":0,"componentType":5125,"count":4236,"type":"SCALAR"},{"bufferView":49,"byteOffset":0,"componentType":5126,"count":1659,"max":[1257.741943359375,264.4766845703125,46.5228157043457],"min":[243.7109375,124.62425994873047,-174.04449462890625],"type":"VEC3"},{"bufferView":50,"byteOffset":0,"componentType":5126,"count":1659,"type":"VEC3"},{"bufferView":51,"byteOffset":0,"componentType":5126,"count":1659,"type":"VEC2"},{"bufferView":52,"byteOffset":0,"componentType":5125,"count":2250,"type":"SCALAR"},{"bufferView":53,"byteOffset":0,"componentType":5126,"count":872,"max":[942.546630859375,259.3752136230469,52.02775192260742],"min":[-668.843017578125,115.77298736572266,-73.44065856933594],"type":"VEC3"},{"bufferView":54,"byteOffset":0,"componentType":5126,"count":872,"type":"VEC3"},{"bufferView":55,"byteOffset":0,"componentType":5126,"count":872,"type":"VEC2"},{"bufferView":56,"byteOffset":0,"componentType":5125,"count":7560,"type":"SCALAR"},{"bufferView":57,"byteOffset":0,"componentType":5126,"count":3003,"max":[830.5072631835938,205.00047302246094,182.52772521972656],"min":[314.0075988769531,114.75115966796875,71.94474029541016],"type":"VEC3"},{"bufferView":58,"byteOffset":0,"componentType":5126,"count":3003,"type":"VEC3"},{"bufferView":59,"byteOffset":0,"componentType":5126,"count":3003,"type":"VEC2"},{"bufferView":60,"byteOffset":0,"componentType":5125,"count":65538,"type":"SCALAR"},{"bufferView":61,"byteOffset":0,"componentType":5126,"count":20239,"max":[-907.3911743164062,95.99009704589844,-533.6902465820312],"min":[-1408.8839111328125,-43.059696197509766,-629.4329833984375],"type":"VEC3"},{"bufferView":62,"byteOffset":0,"componentType":5126,"count":20239,"type":"VEC3"},{"bufferView":63,"byteOffset":0,"componentType":5126,"count":20239,"type":"VEC2"},{"bufferView":64,"byteOffset":0,"componentType":5125,"count":84,"type":"SCALAR"},{"bufferView":65,"byteOffset":0,"componentType":5126,"count":48,"max":[-1027.756591796875,24.34825325012207,-503.52838134765625],"min":[-1402.0380859375,-58.73025894165039,-639.446533203125],"type":"VEC3"},{"bufferView":66,"byteOffset":0,"componentType":5126,"count":48,"type":"VEC3"},{"bufferView":67,"byteOffset":0,"componentType":5126,"count":48,"type":"VEC2"}],"bufferViews":[{"buffer":0,"byteOffset":0,"byteLength":264120,"target":34963},{"buffer":0,"byteOffset":264120,"byteLength":732552,"target":34962},{"buffer":0,"byteOffset":996672,"byteLength":732552,"target":34962},{"buffer":0,"byteOffset":1729224,"byteLength":488368,"target":34962},{"buffer":0,"byteOffset":2217592,"byteLength":30240,"target":34963},{"buffer":0,"byteOffset":2247832,"byteLength":36072,"target":34962},{"buffer":0,"byteOffset":2283904,"byteLength":36072,"target":34962},{"buffer":0,"byteOffset":2319976,"byteLength":24048,"target":34962},{"buffer":0,"byteOffset":2344024,"byteLength":262152,"target":34963},{"buffer":0,"byteOffset":2606176,"byteLength":240600,"target":34962},{"buffer":0,"byteOffset":2846776,"byteLength":240600,"target":34962},{"buffer":0,"byteOffset":3087376,"byteLength":160400,"target":34962},{"buffer":0,"byteOffset":3247776,"byteLength":32640,"target":34963},{"buffer":0,"byteOffset":3280416,"byteLength":37476,"target":34962},{"buffer":0,"byteOffset":3317892,"byteLength":37476,"target":34962},{"buffer":0,"byteOffset":3355368,"byteLength":24984,"target":34962},{"buffer":0,"byteOffset":3380352,"byteLength":336,"target":34963},{"buffer":0,"byteOffset":3380688,"byteLength":576,"target":34962},{"buffer":0,"byteOffset":3381264,"byteLength":576,"target":34962},{"buffer":0,"byteOffset":3381840,"byteLength":384,"target":34962},{"buffer":0,"byteOffset":3382224,"byteLength":30240,"target":34963},{"buffer":0,"byteOffset":3412464,"byteLength":36072,"target":34962},{"buffer":0,"byteOffset":3448536,"byteLength":36072,"target":34962},{"buffer":0,"byteOffset":3484608,"byteLength":24048,"target":34962},{"buffer":0,"byteOffset":3508656,"byteLength":46416,"target":34963},{"buffer":0,"byteOffset":3555072,"byteLength":53952,"target":34962},{"buffer":0,"byteOffset":3609024,"byteLength":53952,"target":34962},{"buffer":0,"byteOffset":3662976,"byteLength":35968,"target":34962},{"buffer":0,"byteOffset":3698944,"byteLength":19968,"target":34963},{"buffer":0,"byteOffset":3718912,"byteLength":23724,"target":34962},{"buffer":0,"byteOffset":3742636,"byteLength":23724,"target":34962},{"buffer":0,"byteOffset":3766360,"byteLength":15816,"target":34962},{"buffer":0,"byteOffset":3782176,"byteLength":206544,"target":34963},{"buffer":0,"byteOffset":3988720,"byteLength":255492,"target":34962},{"buffer":0,"byteOffset":4244212,"byteLength":255492,"target":34962},{"buffer":0,"byteOffset":4499704,"byteLength":170328,"target":34962},{"buffer":0,"byteOffset":4670032,"byteLength":8928,"target":34963},{"buffer":0,"byteOffset":4678960,"byteLength":10428,"target":34962},{"buffer":0,"byteOffset":4689388,"byteLength":10428,"target":34962},{"buffer":0,"byteOffset":4699816,"byteLength":6952,"target":34962},{"buffer":0,"byteOffset":4706768,"byteLength":8952,"target":34963},{"buffer":0,"byteOffset":4715720,"byteLength":10440,"target":34962},{"buffer":0,"byteOffset":4726160,"byteLength":10440,"target":34962},{"buffer":0,"byteOffset":4736600,"byteLength":6960,"target":34962},{"buffer":0,"byteOffset":4743560,"byteLength":30240,"target":34963},{"buffer":0,"byteOffset":4773800,"byteLength":35976,"target":34962},{"buffer":0,"byteOffset":4809776,"byteLength":35976,"target":34962},{"buffer":0,"byteOffset":4845752,"byteLength":23984,"target":34962},{"buffer":0,"byteOffset":4869736,"byteLength":16944,"target":34963},{"buffer":0,"byteOffset":4886680,"byteLength":19908,"target":34962},{"buffer":0,"byteOffset":4906588,"byteLength":19908,"target":34962},{"buffer":0,"byteOffset":4926496,"byteLength":13272,"target":34962},{"buffer":0,"byteOffset":4939768,"byteLength":9000,"target":34963},{"buffer":0,"byteOffset":4948768,"byteLength":10464,"target":34962},{"buffer":0,"byteOffset":4959232,"byteLength":10464,"target":34962},{"buffer":0,"byteOffset":4969696,"byteLength":6976,"target":34962},{"buffer":0,"byteOffset":4976672,"byteLength":30240,"target":34963},{"buffer":0,"byteOffset":5006912,"byteLength":36036,"target":34962},{"buffer":0,"byteOffset":5042948,"byteLength":36036,"target":34962},{"buffer":0,"byteOffset":5078984,"byteLength":24024,"target":34962},{"buffer":0,"byteOffset":5103008,"byteLength":262152,"target":34963},{"buffer":0,"byteOffset":5365160,"byteLength":242868,"target":34962},{"buffer":0,"byteOffset":5608028,"byteLength":242868,"target":34962},{"buffer":0,"byteOffset":5850896,"byteLength":161912,"target":34962},{"buffer":0,"byteOffset":6012808,"byteLength":336,"target":34963},{"buffer":0,"byteOffset":6013144,"byteLength":576,"target":34962},{"buffer":0,"byteOffset":6013720,"byteLength":576,"target":34962},{"buffer":0,"byteOffset":6014296,"byteLength":384,"target":34962}],"scene":0,"scenes":[{"nodes":[0,1],"name":"Main_item"}],"extensionsUsed":["KHR_texture_transform","KHR_lights_punctual"],"extensionsRequired":["KHR_lights_punctual"],"buffers":[{"byteLength":6014680,"uri":"Main_item.bin"}]}