{"asset":{"version":"2.0","generator":"VECTARY"},"nodes":[{"translation":[0,0.00007750132443635139,-1.999999999821589e-9],"scale":[0.001,0.001,0.001],"rotation":[-0.7071067811865475,0,0,0.7071067811865476],"name":"Simplify 8","children":[1]},{"translation":[0,0,0],"scale":[1,1,1],"rotation":[0,0,0,1],"name":"submesh","mesh":0}],"materials":[{"pbrMetallicRoughness":{"baseColorFactor":[1,1,1,1],"baseColorTexture":{"index":0,"extensions":{"KHR_texture_transform":{"offset":[0,0],"scale":[1,1],"rotation":0}},"texCoord":0},"metallicFactor":0,"roughnessFactor":0.7},"name":"Box_mat 2","emissiveFactor":[0,0,0],"extensions":{},"alphaMode":"OPAQUE","doubleSided":false}],"textures":[{"sampler":0,"source":0}],"images":[{"uri":"Box_mat-color.png","mimeType":"image/png"}],"samplers":[{"wrapS":10497,"wrapT":10497}],"meshes":[{"primitives":[{"mode":4,"attributes":{"POSITION":1,"NORMAL":2,"TEXCOORD_0":3},"material":0,"indices":0}]}],"accessors":[{"bufferView":0,"byteOffset":0,"componentType":5125,"count":1698,"type":"SCALAR"},{"bufferView":1,"byteOffset":0,"componentType":5126,"count":1680,"max":[2.5,2.500032424926758,9.181844711303711],"min":[-2.5,-2.500032424926758,0],"type":"VEC3"},{"bufferView":2,"byteOffset":0,"componentType":5126,"count":1680,"type":"VEC3"},{"bufferView":3,"byteOffset":0,"componentType":5126,"count":1680,"type":"VEC2"}],"bufferViews":[{"buffer":0,"byteOffset":0,"byteLength":6792,"target":34963},{"buffer":0,"byteOffset":6792,"byteLength":20160,"target":34962},{"buffer":0,"byteOffset":26952,"byteLength":20160,"target":34962},{"buffer":0,"byteOffset":47112,"byteLength":13440,"target":34962}],"scene":0,"scenes":[{"nodes":[0],"name":"Project Name"}],"extensionsUsed":["KHR_texture_transform"],"buffers":[{"byteLength":60552,"uri":"ProjectName.bin"}]}