{"asset":{"version":"2.0","generator":"VECTARY"},"nodes":[{"translation":[-0.0000351,-8.670000000000067e-7,0.000039175000000000004],"scale":[0.001,0.001,0.001],"rotation":[-0.7071067811865475,0,0,0.7071067811865476],"name":"Simplify 2","children":[1]},{"translation":[0,0,0],"scale":[1,1,1],"rotation":[0,0,0,1],"name":"submesh","mesh":0}],"materials":[{"pbrMetallicRoughness":{"baseColorFactor":[1,1,1,1],"baseColorTexture":{"index":0,"extensions":{"KHR_texture_transform":{"offset":[0,0],"scale":[1,1],"rotation":0}},"texCoord":0},"metallicFactor":0,"roughnessFactor":1},"name":"motoko_split_1_mat","emissiveFactor":[0,0,0],"extensions":{},"alphaMode":"OPAQUE","doubleSided":false}],"textures":[{"sampler":0,"source":0}],"images":[{"uri":"motoko_split_1_mat-color.png","mimeType":"image/png"}],"samplers":[{"wrapS":10497,"wrapT":10497}],"meshes":[{"primitives":[{"mode":4,"attributes":{"POSITION":0,"NORMAL":1,"TEXCOORD_0":2},"material":0}]}],"accessors":[{"bufferView":0,"byteOffset":0,"componentType":5126,"count":197010,"max":[1.201104998588562,0.5575599670410156,5.273448944091797],"min":[-1.201104998588562,-0.5575599670410156,-1.890420930905634e-9],"type":"VEC3"},{"bufferView":1,"byteOffset":0,"componentType":5126,"count":197010,"type":"VEC3"},{"bufferView":2,"byteOffset":0,"componentType":5126,"count":197010,"type":"VEC2"}],"bufferViews":[{"buffer":0,"byteOffset":0,"byteLength":2364120,"target":34962},{"buffer":0,"byteOffset":2364120,"byteLength":2364120,"target":34962},{"buffer":0,"byteOffset":4728240,"byteLength":1576080,"target":34962}],"scene":0,"scenes":[{"nodes":[0],"name":"Project Name"}],"extensionsUsed":["KHR_texture_transform"],"buffers":[{"byteLength":6304320,"uri":"ProjectName.bin"}]}