<?xml version="1.0" encoding="utf-8"?>
<!-- Generator: Adobe Adobe Illustrator 24.2.0, SVG Export Plug-In . SVG Version: 6.00 Build 0)  -->
<svg version="1.1" id="Calque_1" xmlns="http://www.w3.org/2000/svg" xmlns:xlink="http://www.w3.org/1999/xlink" x="0px" y="0px"
	 width="297.97px" height="297.24px" viewBox="0 0 297.97 297.24" style="enable-background:new 0 0 297.97 297.24;"
	 xml:space="preserve">
<style type="text/css">
	.st0{fill:#F0F0F0;}
</style>
<g>
	<path class="st0" d="M169.37,93.47c14.37-14.33,28.6-28.52,43.5-43.38c-2.22-0.13-3.5-0.27-4.78-0.27
		C148.61,49.8,89.13,49.8,29.64,49.8c-4.49,0-4.64-0.14-4.64-4.51c-0.01-13.84,0.07-27.68-0.06-41.52C24.91,0.84,25.76,0,28.72,0
		c88.65,0.07,177.3,0.06,265.94,0.06c0.95,0,1.91,0,3.16,0c0.06,1.24,0.15,2.26,0.15,3.28c0.01,88.56,0.01,177.12,0,265.68
		c0,3.78-0.01,3.79-3.84,3.79c-13.56,0-27.13,0-40.69,0c-5.2,0-5.21,0-5.21-5.11c0-48.78,0-97.56,0-146.34
		c0-10.65,0.01-21.29-0.01-31.94c0-1.1-0.13-2.19-0.24-4.13c-3.89,3.82-7.21,7.02-10.48,10.28
		c-66.73,66.69-133.45,133.39-200.17,200.1c-1.29,1.29-2.24,2.5-4.16,0.55c-10.54-10.72-21.2-21.32-31.81-31.97
		c-0.39-0.39-0.74-0.81-1.36-1.5C56.48,206.3,112.85,149.96,169.37,93.47z"/>
</g>
</svg>
