<?xml version="1.0" encoding="utf-8"?>
<!-- Generator: Adobe Adobe Illustrator 24.2.0, SVG Export Plug-In . SVG Version: 6.00 Build 0)  -->
<svg version="1.1" id="Calque_6" xmlns="http://www.w3.org/2000/svg" xmlns:xlink="http://www.w3.org/1999/xlink" x="0px" y="0px"
	 width="229.07px" height="229.79px" viewBox="0 0 229.07 229.79" style="enable-background:new 0 0 229.07 229.79;"
	 xml:space="preserve">
<style type="text/css">
	.st0{fill:#F0F0F0;}
</style>
<g>
	<path class="st0" d="M229.07,120.2c-0.21,2.45-0.27,4.92-0.59,7.36c-0.47,3.57-0.98,7.14-1.72,10.66
		c-0.75,3.59-1.63,7.16-2.74,10.65c-1.24,3.91-2.75,7.75-4.26,11.57c-0.86,2.17-1.96,4.24-2.96,6.34c-0.12,0.26-0.33,0.48-0.57,0.83
		c-0.33-0.28-0.62-0.5-0.87-0.75c-5.78-5.78-11.56-11.57-17.35-17.34c-0.57-0.57-0.84-1-0.47-1.9c0.95-2.33,1.81-4.7,2.53-7.11
		c0.79-2.66,1.51-5.36,2.05-8.08c0.66-3.35,1.22-6.74,1.6-10.13c0.27-2.4,0.28-4.85,0.22-7.27c-0.09-3.54-0.19-7.09-0.57-10.6
		c-0.33-3.05-1.05-6.07-1.62-9.09c-1.01-5.34-2.82-10.43-4.93-15.42c-2.45-5.79-5.54-11.23-9.15-16.38
		c-4.6-6.54-9.99-12.37-16.16-17.42c-6.62-5.43-13.85-9.95-21.83-13.18c-2.81-1.14-5.7-2.09-8.51-3.2c-0.39-0.16-0.85-0.78-0.86-1.2
		c-0.05-8.07-0.04-16.14-0.04-24.21c0-0.57,0.09-1,0.81-0.79c2.96,0.84,5.93,1.62,8.86,2.56c8.43,2.71,16.44,6.37,24.01,10.98
		c10.04,6.1,18.95,13.54,26.72,22.37c6.84,7.77,12.53,16.29,17.05,25.58c2.55,5.23,4.83,10.58,6.34,16.22
		c1.11,4.15,2.22,8.31,3.13,12.5c0.62,2.9,0.99,5.86,1.3,8.81c0.3,2.77,0.37,5.57,0.57,8.36
		C229.07,111.31,229.1,119.81,229.07,120.2z"/>
	<path class="st0" d="M24.07,153.1c-8.07,0-16.02,0-24.07,0c0-25.4,0-50.7,0-76.17c19.94,0,39.86,0,59.79,0
		c0.07-0.11,0.13-0.21,0.2-0.32c-0.39-0.45-0.75-0.93-1.17-1.35C42.94,59.39,27.06,43.51,11.19,27.64
		c-3.41-3.41-6.8-6.83-10.24-10.21c-0.74-0.73-0.71-1.19,0.01-1.9c4.69-4.63,9.35-9.3,14.02-13.96c1.16-1.16,1.16-1.16,2.33,0.01
		C44.01,28.29,70.72,55,97.43,81.71c43.48,43.48,86.96,86.96,130.45,130.45c0.16,0.16,0.3,0.34,0.48,0.47
		c0.79,0.61,0.71,1.13,0.01,1.81c-4.77,4.72-9.52,9.45-14.23,14.22c-0.77,0.78-1.24,0.73-1.98-0.02
		c-7.94-7.95-15.9-15.88-23.86-23.81c-0.36-0.36-0.76-0.69-1.15-1.04c-2.52,1.84-4.95,3.66-7.43,5.41
		c-7.31,5.14-15.09,9.44-23.49,12.51c-4.65,1.7-9.44,3.03-14.16,4.53c-0.18,0.06-0.34,0.14-0.52,0.2c-1.04,0.36-1.28,0.21-1.28-0.88
		c-0.01-7.96,0.01-15.92-0.02-23.87c0-0.87,0.43-1.21,1.11-1.42c4.86-1.51,9.53-3.51,14.02-5.88c4.6-2.43,8.95-5.27,13.11-8.4
		c0.14-0.11,0.27-0.23,0.22-0.18c-18.04-18.04-36.05-36.05-54.04-54.04c0,28.07,0,56.32,0,84.92c-0.57-0.47-0.91-0.7-1.19-0.99
		c-10.51-10.52-21.02-21.05-31.53-31.57c-10.02-10.02-20.04-20.04-30.05-30.06c-0.67-0.67-1.36-0.99-2.35-0.99
		C41.07,153.11,32.62,153.1,24.07,153.1z"/>
	<path class="st0" d="M142.74,94.3c-2.22-1.54-2.6-3.61-2.55-6.14c0.16-7.54,0.06-15.09,0.06-22.63c0-0.44,0-0.89,0-1.62
		c10.89,5.53,19.12,13.51,24.79,24.02c5.83,10.8,7.92,22.35,6.33,34.79c-0.45-0.34-0.72-0.5-0.95-0.73
		C161.22,112.78,152.01,103.57,142.74,94.3z"/>
	<path class="st0" d="M114.57,35.42c0,10.11,0,20.11,0,30.4c-0.44-0.32-0.7-0.47-0.91-0.68c-8.24-8.23-16.47-16.46-24.71-24.68
		c-0.6-0.6-0.66-0.98-0.01-1.62c8.25-8.21,16.47-16.44,24.7-24.67c0.22-0.22,0.48-0.41,0.94-0.81
		C114.57,20.86,114.57,28.08,114.57,35.42z"/>
</g>
</svg>
