<?xml version="1.0" encoding="utf-8"?>
<!-- Generator: Adobe Adobe Illustrator 24.2.0, SVG Export Plug-In . SVG Version: 6.00 Build 0)  -->
<svg version="1.1" id="Calque_8" xmlns="http://www.w3.org/2000/svg" xmlns:xlink="http://www.w3.org/1999/xlink" x="0px" y="0px"
	 width="229.07px" height="229.79px" viewBox="0 0 229.07 229.79" style="enable-background:new 0 0 229.07 229.79;"
	 xml:space="preserve">
<style type="text/css">
	.st0{fill:#F0F0F0;}
</style>
<g>
	<path class="st0" d="M153.28,82.47c9.19,6.43,18.3,12.82,27.42,19.21c6,4.2,12,8.39,18,12.58c0.97,0.68,0.97,1.02,0.02,1.69
		c-9.13,6.38-18.26,12.76-27.38,19.15c-7.74,5.42-15.48,10.85-23.22,16.27c-10.14,7.11-20.28,14.21-30.43,21.32
		c-3.24,2.27-6.48,4.54-9.87,6.91c0-43.02,0-85.91,0-128.97c2.13,1.49,4.16,2.92,6.18,4.33c5.25,3.67,10.51,7.33,15.76,11
		c5.19,3.64,10.36,7.29,15.54,10.93C147.93,78.75,150.57,80.59,153.28,82.47z"/>
	<path class="st0" d="M215.02,131.9c0,15.91,0,31.71,0,47.6c-4.79,0-9.5,0-14.28,0c0-42.89,0-85.78,0-128.75c4.71,0,9.42,0,14.28,0
		C215.02,77.76,215.02,104.77,215.02,131.9z"/>
</g>
</svg>
