<?xml version="1.0" encoding="utf-8"?>
<!-- Generator: Adobe Adobe Illustrator 24.2.0, SVG Export Plug-In . SVG Version: 6.00 Build 0)  -->
<svg version="1.1" id="Calque_5" xmlns="http://www.w3.org/2000/svg" xmlns:xlink="http://www.w3.org/1999/xlink" x="0px" y="0px"
	 width="236.41px" height="229.79px" viewBox="0 0 236.41 229.79" style="enable-background:new 0 0 236.41 229.79;"
	 xml:space="preserve">
<style type="text/css">
	.st0{fill:#F0F0F0;}
</style>
<g>
	<path class="st0" d="M236.64,118.03c-0.14,0.58-0.36,1.04-0.39,1.52c-0.08,1.11,0,2.23-0.11,3.34c-0.23,2.51-0.53,5.01-0.82,7.51
		c-0.14,1.25-0.26,2.51-0.5,3.75c-0.58,2.98-1.11,5.98-1.86,8.91c-1.01,3.96-1.94,7.97-3.4,11.77c-1.91,4.97-4.15,9.82-6.52,14.59
		c-3.66,7.36-8.18,14.2-13.45,20.51c-5.1,6.11-10.71,11.71-16.93,16.71c-5.41,4.34-11.09,8.26-17.21,11.51
		c-3.88,2.06-7.82,4.07-11.87,5.77c-3.78,1.58-7.73,2.74-11.63,4.02c-1.95,0.64-3.94,1.14-5.92,1.68c-0.32,0.09-0.67,0.09-1.2,0.16
		c0-0.75,0-1.38,0-2.02c0-7.92,0.01-15.83,0-23.75c0-0.78,0.15-1.22,1.03-1.49c9.16-2.82,40.64-14.63,55.79-48.51
		c3.87-8.66,8.07-22.75,8.74-39.61c0.07-1.69,2.29-59.43-58.82-85.2c-2.45-1.04-6.66-2.17-6.66-2.17s-0.06-16.24-0.06-23.73
		c0-1.03,0-2.06,0-3.29c1.03,0.22,1.9,0.38,2.77,0.6c5.69,1.44,11.26,3.26,16.65,5.55c8.46,3.59,16.47,8.04,23.85,13.53
		c5.13,3.81,10,7.92,14.5,12.49c7.44,7.56,13.68,15.99,18.93,25.17c2.98,5.21,5.49,10.67,7.56,16.3c1.43,3.86,2.57,7.84,3.69,11.81
		c0.66,2.37,1.09,4.82,1.49,7.25c0.54,3.31,1.03,6.63,1.41,9.96c0.28,2.43,0.33,4.88,0.51,7.32c0.04,0.52,0.22,1.03,0.37,1.63
		C236.64,113.76,236.64,115.84,236.64,118.03z"/>
	<path class="st0" d="M117.52,11.04c0.24-0.24,0.42-0.55,0.62-0.82c0.1,0.05,0.2,0.1,0.3,0.15c0,69.67,0,139.33,0,209
		c-0.11,0.08-0.21,0.17-0.32,0.25c-1.28-1.37-2.53-2.78-3.86-4.1c-12.61-12.62-25.24-25.22-37.86-37.84
		c-7.53-7.53-22.55-22.64-22.55-22.64l-2.3-0.94c0,0-32.98,0.02-49.47,0.02c-0.49,0-0.98,0-1.53,0c0-26.18,0-52.22,0-78.39
		c0.59-0.03,1.15-0.08,1.72-0.08c16.34,0,49.01,0.02,49.01,0.02L54,74.56C54,74.56,111.53,17.06,117.52,11.04z"/>
	<path class="st0" d="M163.89,77.42c26.71,32.96,10.7,76.52-18.97,90.07c0-35.04,0-70.01,0-105.24c1.76,1.02,3.4,1.9,4.98,2.89
		C155.2,68.46,159.89,72.49,163.89,77.42z"/>
</g>
</svg>
