<svg width="357" height="389" viewBox="0 0 357 389" fill="none" xmlns="http://www.w3.org/2000/svg">
<path d="M178.5 0L333.086 291.75H23.9145L178.5 0Z" fill="black"/>
<g filter="url(#filter0_d_864_1540)">
<path d="M118.904 308.052C118.904 311.449 119.623 313.997 121.06 315.696C122.497 317.264 124.196 318.048 126.156 318.048C128.377 318.048 130.403 317.003 132.232 314.912C134.061 312.821 134.976 309.555 134.976 305.112V282.964H126.156V265.128H162.416V339.804H143.404V326.28H141.64C140.072 331.376 137.197 335.296 133.016 338.04C128.835 340.653 124.261 341.96 119.296 341.96C116.029 341.96 112.697 341.307 109.3 340C106.033 338.563 103.028 336.407 100.284 333.532C97.6708 330.527 95.5148 326.737 93.8161 322.164C92.2481 317.591 91.4641 312.168 91.4641 305.896V236.512C91.4641 224.229 94.6001 215.213 100.872 209.464C107.275 203.584 115.833 200.644 126.548 200.644C137.393 200.644 146.083 203.649 152.616 209.66C159.149 215.671 162.416 224.621 162.416 236.512V258.464H134.976V234.552C134.976 230.763 134.127 228.149 132.428 226.712C130.86 225.275 129.031 224.556 126.94 224.556C124.849 224.556 122.955 225.275 121.256 226.712C119.688 228.149 118.904 230.763 118.904 234.552V308.052ZM196.237 202.8V340H168.797V202.8H196.237ZM245.987 251.408V234.748C245.987 228.084 243.374 224.752 238.147 224.752C233.051 224.752 230.503 228.084 230.503 234.748V243.96C230.503 246.051 230.699 247.88 231.091 249.448C231.483 250.885 232.267 252.257 233.443 253.564C234.619 254.871 236.318 256.243 238.539 257.68C240.891 258.987 243.962 260.555 247.751 262.384L254.415 265.324C258.074 267.023 261.144 268.917 263.627 271.008C266.11 273.099 268.07 275.647 269.507 278.652C271.075 281.527 272.186 284.924 272.839 288.844C273.492 292.764 273.819 297.403 273.819 302.76V305.896C273.819 317.395 270.683 326.28 264.411 332.552C258.139 338.824 249.254 341.96 237.755 341.96C226.387 341.96 217.698 338.889 211.687 332.748C205.676 326.607 202.671 317.656 202.671 305.896V291.392H230.111V308.052C230.111 314.716 232.79 318.048 238.147 318.048C243.504 318.048 246.183 314.781 246.183 308.248V298.252C246.183 296.161 245.987 294.397 245.595 292.96C245.203 291.523 244.419 290.151 243.243 288.844C242.198 287.537 240.564 286.231 238.343 284.924C236.252 283.617 233.443 282.115 229.915 280.416L222.467 277.084C218.808 275.385 215.738 273.491 213.255 271.4C210.772 269.179 208.747 266.565 207.179 263.56C205.742 260.555 204.696 257.092 204.043 253.172C203.39 249.121 203.063 244.417 203.063 239.06V236.708C203.063 225.079 206.068 216.193 212.079 210.052C218.09 203.911 226.648 200.84 237.755 200.84C249.123 200.84 257.878 203.976 264.019 210.248C270.291 216.389 273.427 225.209 273.427 236.708V251.408H245.987Z" fill="#F0F0F0"/>
</g>
<g filter="url(#filter1_d_864_1540)">
<path d="M199.272 11.604L213.972 148.804H186.532L183.396 114.896H171.44L168.5 148.804H141.06L156.348 11.604H199.272ZM181.24 90.984L178.496 58.252H176.536L173.596 90.984H181.24Z" fill="#F0F0F0"/>
</g>
<rect x="165.316" y="156" width="40.2287" height="4.78913" transform="rotate(44.5179 165.316 156)" fill="#D01212"/>
<rect x="161" y="184.171" width="40.2287" height="4.78913" transform="rotate(-42.5674 161 184.171)" fill="#D01212"/>
<defs>
<filter id="filter0_d_864_1540" x="87.4641" y="200.644" width="190.355" height="149.316" filterUnits="userSpaceOnUse" color-interpolation-filters="sRGB">
<feFlood flood-opacity="0" result="BackgroundImageFix"/>
<feColorMatrix in="SourceAlpha" type="matrix" values="0 0 0 0 0 0 0 0 0 0 0 0 0 0 0 0 0 0 127 0" result="hardAlpha"/>
<feOffset dy="4"/>
<feGaussianBlur stdDeviation="2"/>
<feComposite in2="hardAlpha" operator="out"/>
<feColorMatrix type="matrix" values="0 0 0 0 0 0 0 0 0 0 0 0 0 0 0 0 0 0 0.25 0"/>
<feBlend mode="normal" in2="BackgroundImageFix" result="effect1_dropShadow_864_1540"/>
<feBlend mode="normal" in="SourceGraphic" in2="effect1_dropShadow_864_1540" result="shape"/>
</filter>
<filter id="filter1_d_864_1540" x="137.06" y="11.604" width="80.912" height="145.2" filterUnits="userSpaceOnUse" color-interpolation-filters="sRGB">
<feFlood flood-opacity="0" result="BackgroundImageFix"/>
<feColorMatrix in="SourceAlpha" type="matrix" values="0 0 0 0 0 0 0 0 0 0 0 0 0 0 0 0 0 0 127 0" result="hardAlpha"/>
<feOffset dy="4"/>
<feGaussianBlur stdDeviation="2"/>
<feComposite in2="hardAlpha" operator="out"/>
<feColorMatrix type="matrix" values="0 0 0 0 0 0 0 0 0 0 0 0 0 0 0 0 0 0 0.25 0"/>
<feBlend mode="normal" in2="BackgroundImageFix" result="effect1_dropShadow_864_1540"/>
<feBlend mode="normal" in="SourceGraphic" in2="effect1_dropShadow_864_1540" result="shape"/>
</filter>
</defs>
</svg>
