<svg width="214" height="195" viewBox="0 0 214 195" fill="none" xmlns="http://www.w3.org/2000/svg">
<path d="M106.173 11.3062C108.325 12.4646 116.227 27.0671 118.048 30.22L132.097 54.1639L190.079 153.063L201.071 171.84C203.038 175.221 205.056 179.169 207.298 182.265C204.243 183.12 199.723 182.737 196.403 182.737L180.784 182.704L107.607 182.749L40.7355 182.73L21.2761 182.755C19.2941 182.762 7.12085 183.048 6.40777 182.277C6.39074 181.186 10.5786 174.023 11.3784 172.626L70.7436 71.1921L94.3693 30.9937L100.665 20.2015C102.18 17.5651 104.353 13.5926 106.173 11.3062ZM14.5819 177.677L107.45 177.81L165.15 177.803C176.24 177.796 187.644 177.951 198.709 177.646C195.385 173.193 192.279 166.759 189.32 161.92C185.862 156.264 182.571 150.428 179.229 144.702L126.254 54.2551L110.954 28.3262C110.245 27.1364 106.844 20.7839 106.172 20.4557C105.427 23.3389 99.5282 32.4816 97.8806 35.2674L84.6114 57.9125L14.5819 177.677Z" fill="#FDFCFD"/>
<path d="M106.183 38.2128C108.684 39.6219 132.603 85.0082 135.67 90.7365C136.743 92.7385 138.012 94.6422 139.023 96.6735C139.709 98.0515 140.271 99.4887 140.788 100.937C139.901 101.765 130.788 101.343 128.956 101.287C127.448 99.2727 125.755 96.1497 124.709 93.8891C121.783 87.5664 122.435 88.0181 115.56 88.0002L106.533 87.9903C103.693 87.9823 100.851 87.9987 98.0107 88.0395C95.7313 88.0907 93.2502 88.2583 91.0041 88.109C89.3481 92.4959 86.4254 96.9815 84.2636 101.168C81.551 101.563 74.6583 101.355 71.5094 101.415C73.4609 96.9904 76.0393 92.6692 78.3384 88.3978L90.4726 65.9795C94.2903 59.0382 97.9965 52.1376 102.121 45.3668C103.681 42.805 104.337 40.843 106.183 38.2128ZM95.3266 79.9719C99.2065 79.4438 103.303 79.9222 107.271 79.8778C110.558 80.0302 114.47 79.5891 117.596 79.97C116.806 77.8743 107.182 58.4147 105.99 57.8047C105.967 57.7929 105.942 57.7851 105.918 57.7754C105.182 60.5208 104.154 62.6005 102.87 65.122C100.342 70.0846 97.7184 74.9421 95.3266 79.9719Z" fill="#E6E5E5"/>
<path d="M74.5818 139.108C78.6269 139.069 83.2538 138.403 85.9733 141.855C86.5535 142.592 86.7798 142.571 86.7344 143.55C86.1483 144.381 82.1211 147.311 81.1148 147.091C80.6963 146.442 80.7157 145.473 80.658 144.679C77.4007 144.731 61.7502 143.727 59.5178 145.337C58.1494 146.324 58.6582 160.272 58.8927 162.779C61.7487 163.27 77.8566 163.663 80.1338 162.572C80.8029 161.822 80.6479 158.121 80.6582 156.936C78.8179 156.916 71.0729 157.061 69.8808 156.663C69.1922 155.787 69.1755 153.183 69.71 152.362C70.2011 152.002 70.7258 152.07 71.3637 152.05C76.5032 152.051 81.9491 152.131 87.0606 151.974C87.0924 152.396 87.1185 152.819 87.1389 153.242C87.2754 156.241 87.5207 161.149 86.7763 163.872C85.8105 167.407 81.4651 168.722 78.2923 168.683C72.0302 168.606 65.7544 168.964 59.5333 168.545C54.285 168.191 52.3038 165.176 52.4565 160.203C52.423 155.227 52.28 149.981 52.6666 145.044C52.7917 141.95 55.6207 139.67 58.6232 139.394C63.7056 138.925 69.4474 139.129 74.5818 139.108Z" fill="#FDFCFD"/>
<path d="M153.606 156.644C147.497 154.887 132.723 158.16 128.433 154.256C126.775 152.747 126.209 150.874 126.113 148.713C126.001 146.171 126.078 143.667 127.92 141.699C128.754 140.808 129.952 139.923 131.148 139.607C134.203 138.801 137.776 139.137 140.916 139.12C146.893 139.086 152.901 139.238 158.871 138.989C158.695 140.807 159.01 142.652 158.423 144.165C157.786 144.717 157.856 144.553 156.872 144.682C154.847 144.33 137.428 144.283 135.5 144.687L135.33 144.683C132.118 144.61 132.911 148.233 132.97 150.593C138.027 151.407 145.269 150.727 150.513 150.928C157.642 150.846 160.883 153.789 160.559 161.158C160.145 170.535 149.334 168.617 142.842 168.706C137.645 168.777 131.979 168.841 126.923 168.55C126.909 167.297 126.628 164.922 127.286 163.853C128.396 162.047 149.158 164.129 152.795 162.879C153.31 162.702 153.652 162.444 153.885 161.945C154.568 160.487 154.147 158.083 153.606 156.644Z" fill="#FDFCFD"/>
<path d="M90.7416 106.979C97.0667 107.843 98.1685 108.631 102.905 113.094C103.789 113.927 104.954 115.046 105.961 115.786C106.726 116.349 107.368 115.396 108.128 114.767C110.563 112.756 114.075 109.176 116.954 107.997C117.61 107.728 121.371 107.085 122.271 106.895C119.649 111.32 112.288 114.789 109.592 118.5C111.015 120.062 113.162 121.272 114.725 122.563C116.04 123.649 122.125 128.946 122.406 129.987C121.097 129.999 118.9 130.031 117.784 129.484C113.894 127.574 109.843 123.59 106.523 120.828C104.225 122.685 101.886 124.521 99.7382 126.466C97.7545 128.263 96.0096 129.989 93.2168 129.861C92.5903 129.832 91.2853 130.05 90.9149 129.508C91.4846 127.721 101.302 119.919 103.544 118.59C100.72 115.887 92.2355 109.737 90.7416 106.979Z" fill="#FDFCFD"/>
<path d="M103.697 138.937C105.112 139.179 108.312 139.022 109.873 138.967C109.6 146.875 110.044 159.744 109.761 168.101C109.643 168.259 109.543 168.395 109.46 168.507C107.497 168.776 105.522 168.691 103.537 168.676C103.326 165.33 103.094 140.601 103.697 138.937Z" fill="#FDFCFD"/>
<path d="M135.5 144.687C137.428 144.283 154.847 144.33 156.872 144.682C155.779 145.111 137.388 145.015 135.5 144.687Z" fill="#E6E5E5" fill-opacity="0.01"/>
</svg>
